Coordinates
version=1
nRows=17
nColumns=24
inDegrees=yes

Units are S.I. units (second, meters, Newtons, ...)
Angles are in degrees.

endheader
time	pelvis_tilt	pelvis_list	pelvis_rotation	pelvis_tx	pelvis_ty	pelvis_tz	hip_flexion_r	hip_adduction_r	hip_rotation_r	knee_angle_r	ankle_angle_r	subtalar_angle_r	mtp_angle_r	hip_flexion_l	hip_adduction_l	hip_rotation_l	knee_angle_l	ankle_angle_l	subtalar_angle_l	mtp_angle_l	lumbar_extension	lumbar_bending	lumbar_rotation
      1.30750000	     -1.53557431	      0.94277777	     -5.09030978	      0.03759460	      0.96405817	      0.36651398	    -19.46113268	     -1.54846803	     -3.63316100	     -7.39414099	     19.13826671	      3.83479874	      3.06496888	     25.66323834	     -0.24929961	     -2.35119843	      4.47039627	     -2.38148834	     -7.39124350	      1.38274454	    -14.01471859	      4.02850033	      8.52134850
      1.31166667	     -1.58352952	      1.11993179	     -5.11023419	      0.04363888	      0.96344756	      0.36601302	    -19.56440132	     -1.81886397	     -3.72560333	     -7.78436346	     18.97443440	      3.93002563	      3.34101811	     25.80371310	     -0.02091107	     -2.13898799	      3.79757926	     -2.86582036	     -7.89956326	      1.50758725	    -13.89281638	      3.78054219	      8.51983378
      1.31583333	     -1.58657117	      1.31637703	     -5.10759087	      0.04973258	      0.96291753	      0.36546020	    -19.71238477	     -2.10786066	     -3.86590708	     -8.18529968	     18.75816419	      4.01171550	      3.95139848	     25.88373871	      0.24601122	     -1.84525501	      3.13717132	     -3.37111659	     -8.56129690	      1.77981419	    -13.83218653	      3.50258550	      8.51021621
      1.32000000	     -1.67425855	      1.50734198	     -5.15867829	      0.05582655	      0.96235234	      0.36496772	    -19.72725044	     -2.40191626	     -3.90752805	     -8.65827962	     18.53684235	      4.05091936	      4.24493235	     26.06152010	      0.47682421	     -1.72528624	      2.45768971	     -4.03522120	     -9.09600815	      1.89147513	    -13.66249032	      3.24981709	      8.51086807
      1.32416667	     -1.71647752	      1.72698062	     -5.18096704	      0.06199234	      0.96187007	      0.36441395	    -19.79673292	     -2.72344977	     -4.01369306	     -9.12268400	     18.26499328	      4.10712786	      4.58929904	     26.17696282	      0.75873312	     -1.52845188	      1.80062386	     -4.74346304	     -9.78849783	      2.01605738	    -13.54721549	      2.95852375	      8.50747042
      1.32833333	     -1.77538410	      1.95119122	     -5.20495832	      0.06818480	      0.96140944	      0.36385614	    -19.83062231	     -3.04902687	     -4.10786043	     -9.62002401	     17.96609889	      4.13942336	      4.97316481	     26.31351163	      1.04419066	     -1.36078154	      1.13194130	     -5.49379393	    -10.49042506	      2.14349835	    -13.40455413	      2.65261583	      8.49744988
      1.33250000	     -1.82916265	      2.18952420	     -5.23389873	      0.07440072	      0.96099777	      0.36328431	    -19.84470185	     -3.39436673	     -4.21372001	    -10.16364383	     17.60562105	      4.15793483	      5.46772195	     26.43615929	      1.34574952	     -1.17217359	      0.47617828	     -6.26828613	    -11.24689864	      2.29623512	    -13.27719015	      2.33286818	      8.49090319
      1.33666667	     -1.85035868	      2.46172416	     -5.23137628	      0.08070041	      0.96066363	      0.36268918	    -19.92050077	     -3.76273634	     -4.34433377	    -10.64334724	     17.14875485	      4.02811185	     11.35135186	     26.54713345	      1.69452163	     -1.09572464	     -0.22506788	     -7.06584136	    -11.88048889	      4.00554246	    -13.16708406	      1.97090354	      8.41034763
      1.34083333	     -1.95330226	      2.70529767	     -5.27532135	      0.08698089	      0.96029853	      0.36212781	    -19.86197520	     -4.11235694	     -4.37864256	    -11.20909667	     16.72133745	      4.02001946	     11.42372516	     26.74493934	      1.98793048	     -1.05430277	     -0.93754171	     -7.89163092	    -12.54521156	      3.97658552	    -12.96034849	      1.65060487	      8.45877342
      1.34500000	     -2.02034987	      2.97849648	     -5.29714165	      0.09329687	      0.96000588	      0.36151224	    -19.82691186	     -4.49187916	     -4.46822848	    -11.80869523	     16.27682317	      3.99910131	     11.56576460	     26.89674734	      2.32868880	     -0.96342984	     -1.63372517	     -8.72193428	    -13.28946096	      3.95334777	    -12.80168482	      1.29761187	      8.44108321
      1.34916667	     -2.08683208	      3.26374691	     -5.31808372	      0.09964037	      0.95976417	      0.36089861	    -19.77696596	     -4.88306581	     -4.55091906	    -12.43158950	     15.78681372	      3.94504751	     11.77008831	     27.05609481	      2.68051341	     -0.90914276	     -2.35402112	     -9.51543215	    -13.98744148	      3.93254313	    -12.63940646	      0.92873134	      8.42074105
      1.35333333	     -2.15254803	      3.55884211	     -5.33330411	      0.10600696	      0.95956677	      0.36025904	    -19.70947662	     -5.28467032	     -4.63874073	    -13.08575134	     15.25568497	      3.88704527	     12.05463092	     27.21759331	      3.04663662	     -0.85640406	     -3.08667853	    -10.27394512	    -14.68290748	      3.90933008	    -12.47790812	      0.54557138	      8.39679977
      1.35750000	     -2.22244425	      3.86691798	     -5.34880726	      0.11239725	      0.95940690	      0.35961153	    -19.61728090	     -5.70072676	     -4.72323872	    -13.77293060	     14.68612613	      3.80465304	     12.41587716	     27.38942578	      3.42472401	     -0.82612679	     -3.83920099	    -10.98399946	    -15.34736994	      3.88004707	    -12.30571536	      0.15509116	      8.37028860
      1.36166667	     -2.25329127	      4.19078767	     -5.34384206	      0.11883008	      0.95933325	      0.35892922	    -19.56695738	     -6.13350568	     -4.85397356	    -14.44409904	     13.95257952	      3.66632746	     18.23808598	     27.53442704	      3.83197753	     -0.80417584	     -4.63989503	    -11.52906855	    -15.92369602	      3.49618626	    -12.17787682	     -0.26286417	      8.29156705
      1.36583333	     -2.32648303	      4.50213152	     -5.35570919	      0.12523753	      0.95926255	      0.35827255	    -19.43075573	     -6.54970182	     -4.90074650	    -15.19338209	     13.29125988	      3.50581766	     18.30258691	     27.73223606	      4.21138375	     -0.82489177	     -5.46204989	    -12.06149722	    -16.44677664	      3.47620885	    -11.99695581	     -0.65859886	      8.28827794
      1.37000000	     -2.36591107	      4.84189658	     -5.35101165	      0.13170856	      0.95927551	      0.35760101	    -19.33725206	     -6.99087221	     -4.96537155	    -15.92323896	     12.54849576	      3.35901591	     18.37079387	     27.90458156	      4.62858216	     -0.86506427	     -6.32550486	    -12.40475238	    -16.84278710	      3.45509803	    -11.85979321	     -1.10364658	      8.22595832
      1.37416667	     -2.43396221	      5.15311799	     -5.34944331	      0.13810646	      0.95927068	      0.35686669	    -19.14596654	     -7.41472576	     -5.04182929	    -16.78211616	     11.85091158	      3.25765946	     18.63702095	     28.10380078	      5.02797448	     -0.79441146	     -7.18427820	    -12.83845274	    -17.54014123	      3.38607178	    -11.68796135	     -1.48350286	      8.21260363
